<?xml version="1.0" encoding="utf-8"?>
<!-- Generator: Adobe Illustrator 17.0.0, SVG Export Plug-In . SVG Version: 6.00 Build 0)  -->
<!DOCTYPE svg PUBLIC "-//W3C//DTD SVG 1.1//EN" "http://www.w3.org/Graphics/SVG/1.1/DTD/svg11.dtd">
<svg version="1.1" id="Camada_1" xmlns="http://www.w3.org/2000/svg" xmlns:xlink="http://www.w3.org/1999/xlink" x="0px" y="0px"
	 width="800px" height="600px" viewBox="0 0 800 600" enable-background="new 0 0 800 600" xml:space="preserve">
<text transform="matrix(0.9835 0 0 1 278.333 182.3383)" fill="#AED920" font-family="'CambriaMath'" font-size="160">LabSoft</text>
<g>
	<path fill="#5E5E5E" d="M269.632,149.926c-9.157,49.103-50.043,86.273-99.493,89.652c14.217-4.633,24.704-17.958,25.189-33.996
		c0.615-20.362-15.121-37.377-35.148-38.002s-36.762,15.374-37.377,35.736c-0.471,15.575,8.631,29.182,21.897,35.003
		c-44.87-7.596-80.071-42.933-88.759-87.566c-1.01,5.418-1.636,10.98-1.843,16.659c-2.224,61.074,44.67,112.417,104.739,114.678
		c60.069,2.261,110.568-45.417,112.791-106.491C271.948,166.799,271.243,158.204,269.632,149.926z"/>
	<path fill="#AED920" d="M210.518,81.817c-6.48-6.215-15.206-10.039-24.817-10.057c-20.037-0.037-36.31,16.447-36.346,36.819
		s16.177,36.917,36.213,36.954s36.31-16.447,36.346-36.819c0.007-4.018-0.626-7.883-1.788-11.505
		c22.263,43.03,13.937,95.263-18.755,129.012c4.974-2.199,9.848-4.803,14.582-7.825c50.909-32.496,66.269-100.8,34.307-152.561
		S151.118-1.542,100.209,30.954c-7.335,4.682-13.927,10.111-19.751,16.123C126.122,26.886,180.151,40.95,210.518,81.817z"/>
	<path fill="#143AA3" d="M58.024,128.026c-0.024,0.152-0.055,0.3-0.078,0.453c-2.943,20.151,10.737,38.913,30.557,41.905
		c19.819,2.993,38.272-10.917,41.216-31.068c2.943-20.151-10.737-38.913-30.557-41.905c-9.982-1.507-19.614,1.276-27.096,6.981
		c28.072-36.222,75.319-50.615,117.915-37.026c-4.194-3.496-8.697-6.719-13.501-9.623C124.812,26.509,58.024,43.775,27.304,96.307
		S13.565,216.745,65.233,247.979c7.444,4.5,15.203,7.988,23.122,10.514C50.696,227.096,38.061,173.511,58.024,128.026z"/>
</g>
<text transform="matrix(1 0 0 1 286.27 209.2641)" fill="#143AA3" font-family="'CambriaMath'" font-size="22">Laboratório de Desenvolvimento de Software UNIFAE</text>
</svg>
